<svg version="1.1" id="Layer_1" xmlns="http://www.w3.org/2000/svg" xmlns:xlink="http://www.w3.org/1999/xlink" x="0px" y="0px"
	 width="100%" viewBox="0 0 1024 1024" enable-background="new 0 0 1024 1024" xml:space="preserve">
<path fill="#000000" opacity="1.000000" stroke="none" 
	d="
M197.102844,545.533630 
	C200.668060,590.019897 211.578629,632.203491 229.870071,672.406494 
	C265.309601,750.299561 320.902649,809.939087 394.579163,852.950439 
	C442.885925,881.151306 494.972717,897.891724 550.598999,903.857483 
	C578.036316,906.800110 605.491089,906.965332 632.901611,904.514587 
	C656.969666,902.362732 680.657715,897.671082 703.908569,890.961182 
	C704.708679,890.730347 705.500854,890.471863 706.300598,890.239746 
	C709.413879,889.336121 712.575439,889.015808 713.691528,892.886230 
	C714.735901,896.507935 712.010071,897.864014 709.094177,898.739807 
	C684.795044,906.038513 660.052429,910.981995 634.769165,913.399475 
	C615.652649,915.227356 596.518066,915.865906 577.363708,915.027344 
	C503.722015,911.803101 435.615234,890.885437 373.503998,850.895752 
	C318.294495,815.349487 273.795837,769.447937 240.565155,712.832397 
	C216.387756,671.640930 200.438248,627.388794 192.456100,580.214661 
	C188.496826,556.815491 186.296066,533.306152 186.935913,509.641968 
	C188.054230,468.281830 195.649628,428.021301 209.037094,388.848663 
	C225.728745,340.007721 251.156570,296.131104 284.402649,256.792969 
	C328.953766,204.078293 383.841919,166.029541 448.810028,142.777161 
	C489.054443,128.373520 530.456482,119.638512 573.426331,119.631180 
	C574.426270,119.631004 575.426514,119.649223 576.426147,119.632790 
	C579.307739,119.585426 581.431091,120.605682 581.477417,123.807541 
	C581.522156,126.900970 579.619995,128.200470 576.678955,128.337585 
	C572.854187,128.515915 569.035889,128.858398 565.209961,128.983612 
	C532.736389,130.046494 501.067902,135.829468 470.058533,145.339294 
	C408.647858,164.172440 354.913879,195.969040 310.102356,242.048508 
	C254.799637,298.916016 219.224716,366.422546 203.327118,444.245270 
	C196.955383,475.436493 195.180908,506.922638 196.413895,538.647156 
	C196.497772,540.805298 196.846039,542.953247 197.102844,545.533630 
z"/>
<path fill="#000000" opacity="1.000000" stroke="none" 
	d="
M355.752808,699.266357 
	C388.513885,739.560242 428.966187,768.916748 476.480896,788.620483 
	C519.482117,806.452454 564.411621,813.908447 610.793396,811.555359 
	C682.456238,807.919861 745.922058,782.349304 802.197510,738.281067 
	C806.522095,734.894653 810.738342,731.351135 814.802673,727.658020 
	C817.253662,725.430969 819.056030,725.144714 821.492676,727.747925 
	C824.074280,730.505981 823.105286,732.266235 820.760925,734.360168 
	C799.648682,753.216492 776.482544,769.068115 751.379700,782.131104 
	C724.055847,796.349792 695.458740,807.111267 665.365662,813.745178 
	C648.279541,817.511841 630.984985,819.535522 613.475525,820.497803 
	C574.315979,822.649963 535.973145,818.294067 498.690216,806.369385 
	C426.877228,783.400513 369.802795,740.609558 328.775757,677.158508 
	C305.464417,641.106018 291.611725,601.408508 285.511353,558.929138 
	C277.562531,503.578156 285.758850,450.408936 307.438416,399.231659 
	C330.536438,344.705811 366.069031,299.869415 414.683807,265.865631 
	C452.404297,239.481888 494.129883,222.626953 539.814026,216.150284 
	C551.332581,214.517303 562.956360,213.371170 574.650208,213.681976 
	C577.724609,213.763702 581.086426,213.539185 581.253235,217.831741 
	C581.416992,222.047668 578.309448,222.341812 575.075867,222.461823 
	C548.513123,223.447800 522.376038,226.992889 496.999146,235.286087 
	C436.457611,255.071075 387.437317,290.734436 349.945404,342.156830 
	C320.455780,382.603638 302.218994,427.815918 294.534454,477.176331 
	C288.406921,516.535400 291.448547,555.449036 301.798859,593.886169 
	C312.265808,632.756409 330.363617,667.663574 355.752808,699.266357 
z"/>
<path fill="#000000" opacity="1.000000" stroke="none" 
	d="
M496.633057,336.656982 
	C436.773895,368.332764 401.217133,418.152863 388.849274,483.463074 
	C376.716003,547.534485 394.873840,604.193237 438.806915,652.152771 
	C470.068451,686.279297 509.167328,707.004211 554.957947,713.326050 
	C609.722046,720.886719 660.636719,709.836426 706.126160,677.361450 
	C714.132324,671.645813 721.534729,665.161194 728.073853,657.749573 
	C729.373474,656.276489 730.433044,654.494263 732.394470,653.757629 
	C739.522522,658.003296 739.647217,658.892517 734.140076,664.608459 
	C703.136536,696.786865 664.843201,715.019043 621.216858,721.870239 
	C570.906250,729.771118 522.723999,722.567627 478.754547,695.963562 
	C422.821960,662.121155 388.889954,612.621399 378.759033,547.830505 
	C369.894318,491.137848 384.867889,439.719452 417.457642,393.454437 
	C450.524567,346.511963 496.096924,318.626251 552.831970,309.253632 
	C560.393982,308.004364 568.047913,307.500305 575.733643,307.657318 
	C578.653870,307.716980 581.304199,308.229950 581.409119,311.768127 
	C581.521423,315.555511 578.864746,316.249756 575.680359,316.369720 
	C548.000366,317.412811 521.782227,324.226593 496.633057,336.656982 
z"/>
<path fill="#000000" opacity="1.000000" stroke="none" 
	d="
M539.834656,476.459656 
	C558.345276,473.017334 576.737427,481.282104 587.011658,497.376709 
	C596.897827,512.863464 596.516846,533.371399 586.065796,548.291199 
	C574.867126,564.278320 556.212036,571.701355 538.044189,567.399414 
	C519.144775,562.924255 505.513153,547.986877 502.625366,528.553162 
	C499.026428,504.333893 515.472168,480.890625 539.834656,476.459656 
z"/>
<path fill="#000000" opacity="1.000000" stroke="none" 
	d="
M824.999878,446.415497 
	C684.606079,446.415131 544.712402,446.415131 404.677032,446.415131 
	C404.232330,442.456390 405.846436,441.099884 408.821960,441.034485 
	C411.986420,440.964905 415.153381,441.003357 418.319244,441.003082 
	C565.793396,440.990326 713.267517,440.978271 860.741699,440.969604 
	C862.574341,440.969482 864.408264,440.979858 866.239258,441.048065 
	C868.062195,441.115906 869.575867,441.628540 869.524475,443.886841 
	C869.469543,446.300629 867.702881,446.338501 865.992859,446.347015 
	C857.994568,446.386963 849.996094,446.406464 841.997681,446.420288 
	C836.498413,446.429810 830.999146,446.418091 824.999878,446.415497 
z"/>
<path fill="#000000" opacity="1.000000" stroke="none" 
	d="
M635.999878,536.346313 
	C622.574158,536.346680 609.648376,536.346680 596.855225,536.346680 
	C596.116333,532.529846 597.385193,531.072754 600.350403,531.003052 
	C602.015198,530.963867 603.681152,530.954590 605.346558,530.954590 
	C733.434570,530.956970 861.522583,530.959473 989.610596,530.983704 
	C991.761292,530.984070 993.929199,531.131531 996.056030,531.438965 
	C997.281311,531.616089 998.128235,532.535095 998.026245,533.923401 
	C997.926453,535.281311 997.040894,536.059387 995.770142,536.183105 
	C994.117981,536.343933 992.446106,536.341675 990.782715,536.341797 
	C872.688477,536.347534 754.594177,536.346436 635.999878,536.346313 
z"/>
<path fill="#000000" opacity="1.000000" stroke="none" 
	d="
M537.000000,620.993713 
	C602.030579,620.993469 666.561157,620.993469 731.282654,620.993469 
	C730.982361,624.995850 729.455627,626.337036 726.737061,626.505249 
	C724.411865,626.649048 722.089233,626.976929 719.765442,626.976807 
	C623.617004,626.971375 527.468506,626.938782 431.320068,626.901489 
	C429.488495,626.900818 427.652649,626.864441 425.826477,626.735840 
	C423.027496,626.538574 421.242249,625.155212 420.560394,620.993958 
	C459.439270,620.993958 497.969635,620.993958 537.000000,620.993713 
z"/>
<path fill="#000000" opacity="1.000000" stroke="none" 
	d="
M758.000000,358.315552 
	C662.584106,358.315979 567.668213,358.315979 471.950989,358.315979 
	C474.511108,353.409027 478.072083,352.897522 481.962921,352.898682 
	C503.794434,352.905243 525.625916,352.868530 547.457458,352.863831 
	C635.116943,352.844940 722.776367,352.831848 810.435852,352.820374 
	C812.602112,352.820099 814.770386,352.814240 816.934021,352.901917 
	C818.763611,352.976074 820.883606,352.906281 820.872864,355.566620 
	C820.862549,358.118134 818.949097,358.306946 816.995667,358.305420 
	C811.996094,358.301514 806.996521,358.313202 801.996948,358.313812 
	C787.497986,358.315521 772.998962,358.314880 758.000000,358.315552 
z"/>
<path fill="#000000" opacity="1.000000" stroke="none" 
	d="
M733.925171,649.907104 
	C724.492859,636.369202 733.358459,620.920593 743.194336,617.578979 
	C753.326416,614.136780 763.917786,617.699585 768.993347,626.811707 
	C774.173767,636.111938 771.819092,647.803467 763.496277,654.105835 
	C755.149292,660.426453 743.777405,659.759583 736.097046,652.472656 
	C735.378113,651.790527 734.794556,650.965759 733.925171,649.907104 
z"/>
<path fill="#000000" opacity="1.000000" stroke="none" 
	d="
M853.352295,724.196655 
	C847.768127,730.678833 841.098999,733.315796 833.047302,731.379150 
	C825.450073,729.551819 820.598083,724.692932 818.564026,717.091858 
	C816.277283,708.546204 819.792603,699.653320 827.288086,695.066772 
	C835.040588,690.322754 843.950928,691.101501 850.881775,697.128540 
	C857.101013,702.536743 859.185913,712.265015 855.725647,719.961609 
	C855.114136,721.321777 854.297852,722.589844 853.352295,724.196655 
z"/>
<path fill="#000000" opacity="1.000000" stroke="none" 
	d="
M27.976070,623.955872 
	C29.511776,619.976807 32.757938,621.108093 35.373192,621.104309 
	C83.996773,621.033875 132.620483,621.052002 181.244171,621.052063 
	C185.407013,621.052063 189.570099,621.031494 193.732620,621.069214 
	C195.874771,621.088562 197.977432,621.564697 197.959045,624.206177 
	C197.939102,627.067505 195.436920,626.341187 193.806244,626.405823 
	C187.322342,626.662720 180.832230,626.891541 174.344238,626.896729 
	C128.218399,626.933289 82.092468,626.932556 35.966705,626.858887 
	C33.162750,626.854370 29.787556,627.920410 27.976070,623.955872 
z"/>
<path fill="#000000" opacity="1.000000" stroke="none" 
	d="
M127.000000,352.939148 
	C157.863007,352.938995 188.226028,352.938995 218.652405,352.938995 
	C218.877548,357.039948 217.366364,358.269165 214.560822,358.268158 
	C213.228821,358.267670 211.896835,358.291687 210.564835,358.291779 
	C152.119644,358.296295 93.674446,358.317780 35.229370,358.240173 
	C32.701035,358.236816 28.379204,359.716003 28.293545,355.753021 
	C28.208538,351.820038 32.529243,353.002441 35.085953,352.995117 
	C65.557098,352.907532 96.028595,352.938995 127.000000,352.939148 
z"/>
<path fill="#000000" opacity="1.000000" stroke="none" 
	d="
M92.000168,709.623413 
	C137.987579,709.645142 183.474991,709.658569 228.962341,709.709656 
	C231.796921,709.712830 235.263565,708.963684 235.547455,713.527893 
	C233.588120,714.773987 231.534836,714.333801 229.579086,714.334717 
	C164.597076,714.363525 99.615021,714.380920 34.633095,714.300598 
	C32.318161,714.297729 28.215296,715.799133 28.310953,711.792786 
	C28.392273,708.386841 32.280701,709.700012 34.516449,709.687134 
	C53.510509,709.577881 72.505463,709.624084 92.000168,709.623413 
z"/>
<path fill="#000000" opacity="1.000000" stroke="none" 
	d="
M71.000000,441.016663 
	C108.978920,441.012421 146.457901,440.981628 183.936615,441.066406 
	C186.311356,441.071777 190.310318,439.664307 190.558685,443.301575 
	C190.860367,447.719299 186.585846,446.291443 184.093475,446.295868 
	C134.288284,446.384033 84.482933,446.376343 34.677608,446.382812 
	C33.346207,446.382996 32.010033,446.384613 30.684677,446.278351 
	C29.227333,446.161438 28.056959,445.508057 28.011530,443.880219 
	C27.966137,442.253632 29.138790,441.508911 30.544296,441.299683 
	C32.017654,441.080353 33.526489,441.029083 35.020020,441.026581 
	C46.846653,441.006836 58.673332,441.016235 71.000000,441.016663 
z"/>
<path fill="#000000" opacity="1.000000" stroke="none" 
	d="
M34.264305,531.016663 
	C82.401108,531.013245 130.067154,531.005310 177.733200,531.017395 
	C180.845245,531.018127 184.531616,530.551086 183.099365,535.707031 
	C181.164597,536.662048 179.300049,536.319214 177.495865,536.320068 
	C129.996490,536.343933 82.497101,536.343262 34.997707,536.346680 
	C34.664379,536.346680 34.323334,536.393005 33.998951,536.339111 
	C31.761782,535.967285 28.118311,537.404602 28.181725,533.628967 
	C28.233824,530.527039 31.566221,531.227417 34.264305,531.016663 
z"/>
<path fill="#000000" opacity="1.000000" stroke="none" 
	d="
M997.050781,353.774017 
	C998.893494,356.552002 997.722107,357.784515 995.260681,358.185303 
	C993.958008,358.397369 992.602356,358.313232 991.270630,358.313416 
	C947.285278,358.319275 903.299927,358.320190 859.314575,358.315125 
	C857.983032,358.314972 856.649597,358.274841 855.320435,358.196259 
	C853.734924,358.102570 852.929871,357.210907 852.874878,355.629608 
	C852.815552,353.924164 853.887207,353.252777 855.345703,353.098389 
	C856.832825,352.940979 858.336609,352.881409 859.833130,352.880859 
	C903.818359,352.864990 947.803650,352.854736 991.788879,352.884552 
	C993.423767,352.885681 995.058411,353.296936 997.050781,353.774017 
z"/>
<path fill="#000000" opacity="1.000000" stroke="none" 
	d="
M955.000000,709.109009 
	C968.159790,709.249390 980.819519,709.387695 993.479309,709.531860 
	C995.452637,709.554382 998.047546,709.179810 997.957520,712.056274 
	C997.866577,714.964172 995.125793,714.324280 993.267273,714.343140 
	C985.435547,714.422485 977.602600,714.380493 969.770142,714.382568 
	C936.273743,714.391357 902.777283,714.400085 869.280884,714.408264 
	C867.947693,714.408630 866.614258,714.418274 865.281372,714.397522 
	C863.400940,714.368164 861.338196,714.409363 861.454590,711.714233 
	C861.572754,708.977966 863.703735,709.380554 865.531921,709.375366 
	C895.187927,709.291443 924.843994,709.199158 955.000000,709.109009 
z"/>
<path fill="#000000" opacity="1.000000" stroke="none" 
	d="
M828.000000,627.021973 
	C810.365723,626.747864 793.221130,627.582458 776.092712,626.514465 
	C773.189819,626.333496 770.830017,625.694885 770.442810,622.255920 
	C771.831360,620.451294 773.807251,621.023621 775.541138,621.021118 
	C805.334351,620.978516 835.127869,620.933838 864.920471,621.069458 
	C867.479736,621.081116 871.979797,619.422546 871.992065,623.997009 
	C872.004395,628.597717 867.521179,626.879883 864.949646,626.922852 
	C852.802551,627.125671 840.650391,627.018433 828.000000,627.021973 
z"/>
<path fill="#000000" opacity="1.000000" stroke="none" 
	d="
M720.999878,714.408325 
	C704.541687,714.408691 688.583496,714.408691 671.486511,714.408691 
	C674.806946,710.825806 677.956177,709.530334 681.610657,709.593994 
	C700.421082,709.921387 719.223022,709.129333 738.041504,709.474243 
	C761.527344,709.904785 785.026611,709.602783 808.520081,709.621765 
	C809.684692,709.622681 810.859619,709.581299 812.011047,709.717407 
	C813.123474,709.848938 813.759094,710.601501 813.844543,711.741028 
	C813.947266,713.108948 813.343506,714.059387 811.964966,714.198730 
	C810.312622,714.365723 808.640137,714.380127 806.976379,714.381042 
	C778.484253,714.397400 749.992065,714.401367 720.999878,714.408325 
z"/>
<path fill="#000000" opacity="1.000000" stroke="none" 
	d="
M908.430847,626.943359 
	C905.888916,626.690369 903.765320,626.318115 904.046875,623.537170 
	C904.339172,620.649841 906.799683,621.047668 908.688843,621.044189 
	C936.820374,620.992920 964.951965,620.985962 993.083557,621.011719 
	C995.212219,621.013672 997.982056,620.905396 998.008179,623.880066 
	C998.037598,627.238953 995.009033,626.951904 992.777222,626.955383 
	C964.812195,626.999390 936.847107,626.974060 908.430847,626.943359 
z"/>
<path fill="#000000" opacity="1.000000" stroke="none" 
	d="
M447.000000,530.987732 
	C462.990662,530.992310 478.481354,530.985352 493.971954,531.010559 
	C496.934418,531.015442 499.925476,531.113159 499.280914,535.487000 
	C497.653564,536.801086 495.749329,536.319458 493.977875,536.320862 
	C461.330872,536.346436 428.683868,536.333984 396.036835,536.323547 
	C394.872131,536.323181 393.705627,536.291443 392.543152,536.221252 
	C390.951538,536.125183 390.139038,535.177368 390.039520,533.651428 
	C389.926666,531.921387 391.093750,531.325256 392.540253,531.182556 
	C393.862427,531.052063 395.199493,531.035461 396.530090,531.033691 
	C413.186737,531.011353 429.843353,531.000916 447.000000,530.987732 
z"/>
<path fill="#000000" opacity="1.000000" stroke="none" 
	d="
M482.982544,709.626038 
	C489.482086,709.720215 495.737549,708.681885 500.944824,713.191711 
	C499.798309,714.908508 498.347656,714.321228 497.137939,714.322205 
	C457.639526,714.353577 418.141052,714.338867 378.642609,714.367004 
	C375.547241,714.369202 372.704895,714.183228 371.184814,709.626282 
	C408.674408,709.626282 445.580322,709.626282 482.982544,709.626038 
z"/>
<path fill="#000000" opacity="1.000000" stroke="none" 
	d="
M437.923401,352.907257 
	C441.335327,352.904144 444.262390,352.904144 447.762665,352.904144 
	C446.169586,358.012604 442.892914,358.315735 439.326630,358.312836 
	C411.875214,358.290680 384.423706,358.337189 356.972473,358.270966 
	C353.081665,358.261566 349.095886,358.945587 345.098724,357.578278 
	C345.576263,353.297424 348.459656,352.927429 351.590485,352.924530 
	C360.907318,352.915955 370.224152,352.911102 379.540985,352.910217 
	C398.840179,352.908386 418.139343,352.910095 437.923401,352.907257 
z"/>
<path fill="#000000" opacity="1.000000" stroke="none" 
	d="
M347.000000,621.040771 
	C363.479492,621.039612 379.458984,621.028931 395.438477,621.043518 
	C398.686890,621.046448 401.882812,621.219849 402.261871,625.686218 
	C399.612366,627.725891 396.639038,626.550110 393.985413,626.590149 
	C369.527527,626.959534 345.065460,627.366028 320.607422,626.457397 
	C317.765747,626.351868 315.698700,625.689209 315.895172,621.040222 
	C326.091370,621.040222 336.295685,621.040222 347.000000,621.040771 
z"/>
<path fill="#000000" opacity="1.000000" stroke="none" 
	d="
M997.752686,444.948578 
	C995.842957,446.854279 993.752014,446.343689 991.811829,446.347015 
	C963.525574,446.395111 935.239258,446.401489 906.952942,446.409943 
	C905.789917,446.410278 904.623840,446.373138 903.464783,446.281769 
	C902.133484,446.176788 901.329102,445.449219 901.219238,444.078979 
	C901.092712,442.501678 901.850525,441.505981 903.376099,441.239594 
	C904.515076,441.040619 905.690430,440.977600 906.849609,440.977386 
	C935.302368,440.972015 963.755127,440.958679 992.207703,441.034790 
	C994.658813,441.041351 997.947693,440.306580 997.752686,444.948578 
z"/>
<path fill="#000000" opacity="1.000000" stroke="none" 
	d="
M218.782532,621.054016 
	C243.329880,621.036560 267.458313,621.027222 291.586670,621.063965 
	C294.512054,621.068420 297.935272,620.621399 297.704987,625.231384 
	C296.650055,626.586426 295.237244,626.350952 293.957886,626.361206 
	C270.668243,626.548035 247.378464,626.723022 224.088440,626.846008 
	C222.104462,626.856506 220.104721,626.569214 218.137802,626.258728 
	C216.602127,626.016174 215.978912,624.750061 215.809357,623.370483 
	C215.580292,621.506531 216.981018,621.254944 218.782532,621.054016 
z"/>
<path fill="#000000" opacity="1.000000" stroke="none" 
	d="
M273.000000,352.924194 
	C291.100281,352.922485 308.700531,352.922485 326.564484,352.922485 
	C326.455353,357.774567 323.760468,358.302124 320.547882,358.295685 
	C310.057526,358.274689 299.567108,358.292908 289.076691,358.296082 
	C273.590820,358.300751 258.104950,358.324005 242.619186,358.286652 
	C240.669907,358.281952 238.615936,358.746826 236.672562,357.494781 
	C236.274200,353.417633 238.974380,352.954010 242.027954,352.948456 
	C252.185272,352.930054 262.342651,352.931854 273.000000,352.924194 
z"/>
<path fill="#000000" opacity="1.000000" stroke="none" 
	d="
M353.999878,446.374084 
	C337.748535,446.374298 321.997162,446.374298 306.324860,446.374298 
	C305.429871,441.569519 307.965271,441.047699 310.876038,441.035217 
	C319.697327,440.997437 328.518829,441.002686 337.340240,440.999542 
	C351.987152,440.994293 366.634491,440.940979 381.280457,441.057587 
	C383.295593,441.073639 386.756439,439.808044 386.747314,443.395538 
	C386.738312,446.939819 383.385010,446.325562 380.964172,446.336761 
	C372.142883,446.377563 363.321350,446.365784 353.999878,446.374084 
z"/>
<path fill="#000000" opacity="1.000000" stroke="none" 
	d="
M229.000488,441.007324 
	C246.976501,441.010590 264.452698,441.009583 281.928864,441.026398 
	C283.423340,441.027863 284.926697,441.069031 286.409424,441.237213 
	C287.688599,441.382294 288.612793,442.064209 288.455139,443.535889 
	C288.325043,444.749939 287.906891,445.868927 286.530792,446.121399 
	C285.557373,446.299957 284.547180,446.336090 283.553345,446.336761 
	C259.918915,446.352386 236.284485,446.354645 212.650055,446.358307 
	C212.317261,446.358368 211.982239,446.367828 211.652054,446.334930 
	C210.036682,446.173706 208.037445,446.441528 208.111893,443.935669 
	C208.174484,441.828674 209.706146,441.116211 211.525986,441.092285 
	C217.183594,441.017944 222.842331,441.029510 229.000488,441.007324 
z"/>
<path fill="#000000" opacity="1.000000" stroke="none" 
	d="
M269.889221,530.992371 
	C272.201569,531.034607 274.037872,531.003601 275.861084,531.143555 
	C277.450256,531.265625 278.877563,531.836365 278.917969,533.756714 
	C278.959747,535.744568 277.563568,536.216553 275.914398,536.275757 
	C274.916138,536.311584 273.916534,536.322937 272.917542,536.323242 
	C250.934341,536.329590 228.951157,536.335510 206.967957,536.330322 
	C205.637802,536.330017 204.295547,536.330383 202.980911,536.160400 
	C201.626266,535.985291 201.049072,534.990051 200.978607,533.691467 
	C200.902267,532.284424 201.677155,531.446228 202.976318,531.287109 
	C204.621887,531.085571 206.293762,531.032654 207.954437,531.030701 
	C228.438766,531.006042 248.923126,531.002441 269.889221,530.992371 
z"/>
<path fill="#000000" opacity="1.000000" stroke="none" 
	d="
M324.999939,536.329468 
	C316.520020,536.326965 308.539978,536.347107 300.560303,536.304016 
	C298.795410,536.294434 296.524536,536.659058 296.337677,534.026855 
	C296.128052,531.073181 298.539062,531.085571 300.509796,531.081238 
	C323.119232,531.032227 345.728851,531.014832 368.338226,531.063599 
	C370.385010,531.068054 373.165192,530.799072 373.024109,534.048523 
	C372.889343,537.152344 370.160645,536.273438 368.391724,536.283508 
	C354.094849,536.364746 339.797272,536.329163 324.999939,536.329468 
z"/>
<path fill="#000000" opacity="1.000000" stroke="none" 
	d="
M291.999939,714.347595 
	C281.182190,714.347656 270.864471,714.335449 260.546783,714.354431 
	C257.763153,714.359558 255.143890,714.212036 254.745331,710.707825 
	C255.367691,709.338196 256.477692,709.641724 257.419647,709.641663 
	C286.042755,709.641235 314.665863,709.664124 343.288971,709.661011 
	C346.188538,709.660706 349.016144,709.652100 350.301727,714.346985 
	C330.788177,714.346985 311.644043,714.346985 291.999939,714.347595 
z"/>
<path fill="#000000" opacity="1.000000" stroke="none" 
	d="
M893.645752,437.432617 
	C896.713318,441.956238 896.694275,446.191589 893.626526,450.216003 
	C890.964294,453.708435 887.244995,455.074371 883.005249,454.027039 
	C878.764771,452.979492 876.148865,450.005341 875.369873,445.708832 
	C874.538574,441.123840 876.448853,437.544739 880.236084,435.079468 
	C884.180176,432.512115 888.825439,433.344086 893.645752,437.432617 
z"/>
<path fill="#000000" opacity="1.000000" stroke="none" 
	d="
M839.432861,345.876556 
	C844.754456,347.763550 847.543213,351.238281 847.118958,356.509277 
	C846.758484,360.987366 844.162903,364.106171 839.780090,365.581879 
	C835.493958,367.025024 831.887817,365.805450 829.045837,362.546997 
	C826.014526,359.071442 825.739807,354.945465 827.720764,350.947266 
	C830.006226,346.334595 834.146057,345.079193 839.432861,345.876556 
z"/>
<path fill="#000000" opacity="1.000000" stroke="none" 
	d="
M898.172058,621.540955 
	C898.468506,628.772278 895.842346,632.976013 890.625916,634.155457 
	C885.734436,635.261414 880.948120,633.050415 878.939453,628.756958 
	C876.457886,623.452759 878.582275,617.131165 883.648071,614.745667 
	C889.364319,612.053894 894.915466,614.507507 898.172058,621.540955 
z"/>
<path fill="#000000" opacity="1.000000" stroke="none" 
	d="
M682.321899,269.745117 
	C685.424072,270.112030 689.884033,268.517181 689.449768,273.102386 
	C689.078491,277.023621 684.882141,275.917908 682.028076,275.835022 
	C680.299805,275.784821 678.614929,275.075012 678.422119,273.078552 
	C678.193604,270.712036 679.944519,270.042908 682.321899,269.745117 
z"/>
<path fill="#000000" opacity="1.000000" stroke="none" 
	d="
M674.866333,255.462067 
	C675.472473,258.428131 676.224060,261.023438 675.567261,263.702057 
	C675.189453,265.242676 674.528442,266.626160 672.683777,266.597443 
	C671.370361,266.577026 670.505371,265.564972 670.275452,264.404999 
	C669.663208,261.316406 669.033081,258.110229 670.859253,255.234528 
	C671.854370,253.667603 673.345581,253.825317 674.866333,255.462067 
z"/>
<path fill="#000000" opacity="1.000000" stroke="none" 
	d="
M670.454712,280.245667 
	C672.046326,278.393463 673.937927,278.061340 674.675171,279.984406 
	C675.912476,283.211823 676.002563,286.746185 674.953491,290.138794 
	C674.654602,291.105316 673.689392,291.759491 672.604553,291.594055 
	C671.145752,291.371613 670.241150,290.305725 670.039551,288.925873 
	C669.633850,286.148254 669.519165,283.345825 670.454712,280.245667 
z"/>
<path fill="#000000" opacity="1.000000" stroke="none" 
	d="
M661.899536,269.725555 
	C664.579468,269.831696 667.107544,270.082550 666.785278,273.030670 
	C666.493408,275.701019 663.895081,275.903778 661.718323,275.945923 
	C659.414795,275.990509 656.437317,276.182159 656.163391,273.174164 
	C655.835205,269.570892 658.989441,269.829376 661.899536,269.725555 
z"/>
<path fill="#000000" opacity="1.000000" stroke="none" 
	d="
M642.180054,270.740784 
	C643.429016,270.231598 644.374390,269.799255 645.324402,269.788879 
	C647.768616,269.762146 650.935059,269.352020 650.912903,272.929047 
	C650.893494,276.070801 647.963013,276.147247 645.643188,275.934875 
	C642.818848,275.676300 640.075928,274.976746 642.180054,270.740784 
z"/>
<path fill="#000000" opacity="1.000000" stroke="none" 
	d="
M699.960144,269.743988 
	C702.590210,269.966980 704.379028,270.804993 703.859741,273.388153 
	C703.430664,275.522522 701.478516,275.912628 699.603149,275.965485 
	C697.593201,276.022156 695.286560,275.964752 694.836914,273.531158 
	C694.145996,269.791840 696.997253,269.806824 699.960144,269.743988 
z"/>
<path fill="#000000" opacity="1.000000" stroke="none" 
	d="
M669.742065,301.037964 
	C669.830017,298.468719 670.302917,296.426178 672.999634,296.592285 
	C675.245789,296.730621 675.942627,298.576538 676.007507,300.532745 
	C676.070923,302.446381 675.623962,304.429199 673.509644,304.920135 
	C670.889221,305.528564 670.052002,303.650208 669.742065,301.037964 
z"/>
<path fill="#000000" opacity="1.000000" stroke="none" 
	d="
M672.853271,240.199493 
	C676.813538,242.014389 676.898621,244.714310 674.885681,247.613632 
	C673.731140,249.276642 671.768982,249.385406 670.728149,247.612228 
	C669.077332,244.799927 668.687744,241.902512 672.853271,240.199493 
z"/>
</svg>